<?xml version="1.0" standalone="no"?><!DOCTYPE svg PUBLIC "-//W3C//DTD SVG 1.1//EN" "http://www.w3.org/Graphics/SVG/1.1/DTD/svg11.dtd"><svg t="1610774527635" class="icon" viewBox="0 0 1024 1024" version="1.1" xmlns="http://www.w3.org/2000/svg" p-id="23920" xmlns:xlink="http://www.w3.org/1999/xlink" width="128" height="128"><defs><style type="text/css"></style></defs><path d="M390.105361 682.631235m-48.736596 0a48.736596 48.736596 0 1 0 97.473193 0 48.736596 48.736596 0 1 0-97.473193 0Z" p-id="23921" fill="#a4579d"></path><path d="M633.894639 682.631235m-48.736597 0a48.736596 48.736596 0 1 0 97.473193 0 48.736596 48.736596 0 1 0-97.473193 0Z" p-id="23922" fill="#a4579d"></path><path d="M511.973426 633.894639c0 113.098666 103.26631 204.778741 230.714901 204.77874a255.109773 255.109773 0 0 0 37.469248-2.710541c-52.722686 83.123268-153.065864 139.247418-268.184149 139.247418s-215.461463-56.12415-268.184149-139.247418a255.109773 255.109773 0 0 0 37.469248 2.710541c127.448591 0.159444 230.714901-91.680075 230.714901-204.77874z" p-id="23923" fill="#a4579d"></path><path d="M219.660144 438.841958h98.80189a292.579021 292.579021 0 1 0 387.022785 0h99.067628a365.710489 365.710489 0 1 1-585.158042 0z" p-id="23924" fill="#a4579d"></path><path d="M0 487.631702m36.565734 0l950.868532 0q36.565734 0 36.565734 36.565734l0 24.394872q0 36.565734-36.565734 36.565734l-950.868532 0q-36.565734 0-36.565734-36.565734l0-24.394872q0-36.565734 36.565734-36.565734Z" p-id="23925" fill="#a4579d"></path><path d="M292.525873 0h438.895106c80.784762 0 146.262937 74.8322 146.262937 167.150049v417.954845H146.262937V167.150049C146.262937 74.8322 211.741112 0 292.525873 0z" p-id="23926" fill="#a4579d"></path></svg>