<?xml version="1.0" standalone="no"?><!DOCTYPE svg PUBLIC "-//W3C//DTD SVG 1.1//EN" "http://www.w3.org/Graphics/SVG/1.1/DTD/svg11.dtd"><svg t="1610773544194" class="icon" viewBox="0 0 1024 1024" version="1.1" xmlns="http://www.w3.org/2000/svg" p-id="21228" xmlns:xlink="http://www.w3.org/1999/xlink" width="128" height="128"><defs><style type="text/css"></style></defs><path d="M901.12 532.48c24.576 0 47.104 4.096 69.632 10.24-10.24-20.48-24.576-38.912-45.056-51.2 30.72-2.048 55.296-28.672 55.296-61.44 0-34.816-26.624-61.44-61.44-61.44h-67.584l-45.056-174.08c-8.192-28.672-28.672-51.2-57.344-59.392-169.984-45.056-349.184-45.056-520.192 0-26.624 8.192-49.152 30.72-57.344 59.392l-43.008 174.08H81.92c-34.816 0-61.44 26.624-61.44 61.44 0 26.624 16.384 49.152 40.96 57.344-36.864 20.48-61.44 61.44-61.44 106.496v163.84c0 38.912 26.624 69.632 61.44 79.872V880.64c0 22.528 18.432 40.96 40.96 40.96h122.88c22.528 0 40.96-18.432 40.96-40.96v-40.96h372.736c-2.048-14.336-4.096-26.624-4.096-40.96 0-147.456 118.784-266.24 266.24-266.24zM163.84 737.28c-45.056 0-81.92-36.864-81.92-81.92s36.864-81.92 81.92-81.92 81.92 36.864 81.92 81.92-36.864 81.92-81.92 81.92z m43.008-306.176l45.056-215.04c77.824-20.48 157.696-30.72 239.616-30.72 81.92 0 161.792 10.24 239.616 30.72l45.056 215.04H206.848zM1024 750.592c-1.024-6.144-6.144-10.24-11.264-11.264h-6.144c-7.168-1.024-12.288-7.168-12.288-14.336v-29.696c0-8.192 5.12-12.288 12.288-13.312 6.144 0 11.264-4.096 12.288-10.24v-9.216c0-2.048-1.024-4.096-2.048-6.144-3.072-5.12-7.168-7.168-13.312-7.168H871.424c-6.144 0-11.264 4.096-12.288 10.24-1.024 3.072-1.024 6.144-1.024 9.216 0 7.168 5.12 12.288 12.288 13.312 7.168 0 12.288 5.12 12.288 12.288v30.72c0 5.12-2.048 9.216-6.144 11.264-3.072 2.048-6.144 2.048-9.216 2.048-7.168 0-12.288 4.096-13.312 11.264v8.192c0 3.072 1.024 5.12 3.072 7.168 3.072 3.072 7.168 5.12 11.264 5.12 3.072 0 6.144 0 8.192 2.048 4.096 3.072 6.144 7.168 6.144 12.288v25.6c0 4.096-1.024 7.168-3.072 10.24l-12.288 18.432c-4.096 5.12-3.072 13.312 2.048 17.408 2.048 2.048 4.096 3.072 7.168 5.12 2.048 1.024 3.072 1.024 5.12 1.024 5.12 0 9.216-2.048 12.288-6.144 6.144-8.192 12.288-17.408 18.432-25.6 2.048-3.072 3.072-6.144 3.072-10.24v-35.84c0-8.192 5.12-14.336 13.312-14.336h21.504c7.168 1.024 11.264 7.168 11.264 14.336v70.656c0 5.12 3.072 9.216 7.168 12.288 1.024 1.024 3.072 1.024 4.096 2.048h8.192c2.048-1.024 3.072-1.024 5.12-2.048 5.12-3.072 7.168-7.168 7.168-12.288v-29.696-39.936c0-7.168 5.12-13.312 12.288-14.336h5.12c6.144-1.024 11.264-5.12 12.288-11.264v-1.024c1.024-2.048 1.024-5.12 1.024-8.192z m-61.44-25.6c0 8.192-6.144 14.336-14.336 14.336h-17.408c-8.192 0-14.336-6.144-14.336-14.336V696.32c0-8.192 6.144-14.336 14.336-14.336h18.432c8.192 0 14.336 6.144 14.336 14.336v15.36c-1.024 3.072-1.024 8.192-1.024 13.312z" fill="#e8989a" p-id="21229"></path><path d="M820.224 691.2c1.024-6.144 6.144-10.24 12.288-10.24s11.264-4.096 12.288-10.24v-12.288c-1.024-5.12-5.12-9.216-10.24-10.24h-4.096c-6.144-1.024-9.216-6.144-10.24-12.288v-19.456c0-6.144-2.048-10.24-7.168-12.288-1.024-1.024-3.072-1.024-5.12-2.048h-8.192c-1.024 1.024-3.072 1.024-4.096 2.048-5.12 3.072-7.168 7.168-7.168 12.288V634.88c0 7.168-5.12 12.288-11.264 13.312h-5.12c-8.192 0-14.336 5.12-15.36 12.288v8.192c0 1.024 1.024 2.048 1.024 3.072 3.072 6.144 7.168 8.192 13.312 8.192h5.12c7.168 1.024 11.264 7.168 11.264 13.312v34.816c0 7.168-6.144 13.312-13.312 14.336-4.096 0-7.168 1.024-10.24 4.096-2.048 2.048-4.096 5.12-4.096 8.192v10.24c1.024 6.144 6.144 10.24 12.288 10.24 3.072 0 6.144 1.024 8.192 2.048 4.096 3.072 6.144 6.144 6.144 11.264v45.056c0 2.048 0 2.048-2.048 2.048H768v20.48c1.024 6.144 5.12 10.24 11.264 11.264h26.624c2.048-1.024 3.072-1.024 5.12-2.048 5.12-3.072 7.168-7.168 7.168-13.312v-41.984-32.768c0-4.096 1.024-8.192 5.12-11.264 3.072-2.048 5.12-5.12 8.192-7.168 2.048-2.048 5.12-4.096 7.168-6.144 5.12-5.12 5.12-14.336 0-19.456l-12.288-12.288c-2.048 2.048-5.12 4.096-8.192 7.168V727.04v-35.84c2.048 2.048 2.048 1.024 2.048 0zM970.752 611.328c-1.024 1.024-3.072 2.048-4.096 4.096-4.096 4.096-5.12 9.216-3.072 15.36 2.048 4.096 5.12 7.168 8.192 9.216 5.12 3.072 10.24 3.072 15.36 0 2.048-1.024 4.096-3.072 5.12-5.12 4.096-4.096 5.12-11.264 2.048-16.384-2.048-3.072-4.096-5.12-7.168-7.168-2.048-2.048-5.12-2.048-8.192-2.048-2.048-1.024-5.12 0-8.192 2.048zM888.832 611.328l-3.072 3.072c-5.12 5.12-5.12 13.312-1.024 19.456 1.024 1.024 2.048 3.072 4.096 4.096 4.096 3.072 8.192 4.096 13.312 3.072 5.12-1.024 8.192-5.12 11.264-9.216 1.024-2.048 2.048-4.096 2.048-6.144 0-4.096-1.024-7.168-3.072-9.216-1.024-1.024-2.048-3.072-4.096-4.096-6.144-5.12-14.336-6.144-19.456-1.024z" fill="#e8989a" p-id="21230"></path></svg>