<?xml version="1.0" standalone="no"?><!DOCTYPE svg PUBLIC "-//W3C//DTD SVG 1.1//EN" "http://www.w3.org/Graphics/SVG/1.1/DTD/svg11.dtd"><svg t="1610772831797" class="icon" viewBox="0 0 1024 1024" version="1.1" xmlns="http://www.w3.org/2000/svg" p-id="8278" xmlns:xlink="http://www.w3.org/1999/xlink" width="128" height="128"><defs><style type="text/css"></style></defs><path d="M155.420444 847.075556c-25.144889 0-45.624889-20.48-45.624888-45.624889V283.648c0-25.144889 20.48-45.624889 45.624888-45.624889h87.04V212.764444a35.84 35.84 0 1 1 71.68 0v25.258667h402.090667V212.764444a35.84 35.84 0 1 1 71.68 0v25.258667h80.896c25.144889 0 45.624889 20.48 45.624889 45.624889v517.802667c0 25.144889-20.48 45.624889-45.624889 45.624889h-713.386667z" fill="#FFFFFF" p-id="8279"></path><path d="M751.957333 188.302222c13.539556 0 24.462222 10.922667 24.462223 24.462222v36.636445h92.273777c18.887111 0 34.247111 15.36 34.247111 34.247111v517.802667c0 18.887111-15.36 34.247111-34.247111 34.247111h-713.386666c-18.887111 0-34.247111-15.36-34.247111-34.247111V283.648c0-18.887111 15.36-34.247111 34.247111-34.247111h98.417777V212.764444c0-13.539556 10.922667-24.462222 24.462223-24.462222s24.462222 10.922667 24.462222 24.462222v36.636445H727.495111V212.764444c0-13.539556 10.922667-24.462222 24.462222-24.462222m0-22.755555c-26.055111 0-47.217778 21.162667-47.217777 47.217777v13.880889H325.404444V212.764444c0-26.055111-21.162667-47.217778-47.217777-47.217777s-47.217778 21.162667-47.217778 47.217777v13.880889h-75.662222c-31.402667 0-57.002667 25.6-57.002667 57.002667v517.802667c0 31.402667 25.6 57.002667 57.002667 57.002666h713.272889c31.402667 0 57.002667-25.6 57.002666-57.002666V283.648c0-31.402667-25.6-57.002667-57.002666-57.002667h-69.518223V212.764444a47.081244 47.081244 0 0 0-47.104-47.217777z" fill="#292647" p-id="8280"></path><path d="M870.968889 835.697778h-717.937778c-17.635556 0-31.971556-14.336-31.971555-31.971556V281.258667c0-17.635556 14.336-31.971556 31.971555-31.971556h717.937778c17.635556 0 31.971556 14.336 31.971555 31.971556v522.467555c0 17.749333-14.336 31.971556-31.971555 31.971556z" fill="#7FDDFF" p-id="8281"></path><path d="M169.984 366.023111h684.145778v420.864H169.984z" fill="#FFFFFF" p-id="8282"></path><path d="M298.780444 321.877333h-3.299555c-12.515556 0-22.755556-10.24-22.755556-22.755555v-49.720889h48.810667v49.720889a22.755556 22.755556 0 0 1-22.755556 22.755555zM773.347556 321.877333h-3.299556c-12.515556 0-22.755556-10.24-22.755556-22.755555v-49.720889h48.810667v49.720889c0 12.515556-10.24 22.755556-22.755555 22.755555z" fill="#5ECEF7" p-id="8283"></path><path d="M753.664 310.385778h-3.299556c-12.515556 0-22.755556-10.24-22.755555-22.755556v-76.686222c0-12.515556 10.24-22.755556 22.755555-22.755556h3.299556c12.515556 0 22.755556 10.24 22.755556 22.755556v76.686222a22.755556 22.755556 0 0 1-22.755556 22.755556zM279.893333 310.385778h-3.413333c-12.515556 0-22.755556-10.24-22.755556-22.755556v-76.686222c0-12.515556 10.24-22.755556 22.755556-22.755556h3.299556c12.515556 0 22.755556 10.24 22.755555 22.755556v76.686222c0.113778 12.629333-10.126222 22.755556-22.641778 22.755556z" fill="#FFFFFF" p-id="8284"></path><path d="M339.285333 542.492444h-58.140444c-8.419556 0-15.246222-6.826667-15.246222-15.246222v-58.140444c0-8.419556 6.826667-15.246222 15.246222-15.246222h58.140444c8.419556 0 15.246222 6.826667 15.246223 15.246222v58.140444c0 8.533333-6.826667 15.246222-15.246223 15.246222z" fill="#D72F1C" p-id="8285"></path><path d="M339.285333 698.936889h-58.140444c-8.419556 0-15.246222-6.826667-15.246222-15.246222v-58.140445c0-8.419556 6.826667-15.246222 15.246222-15.246222h58.140444c8.419556 0 15.246222 6.826667 15.246223 15.246222v58.140445c0 8.419556-6.826667 15.246222-15.246223 15.246222z" fill="#00F0F4" p-id="8286"></path><path d="M541.013333 542.492444h-58.140444c-8.419556 0-15.246222-6.826667-15.246222-15.246222v-58.140444c0-8.419556 6.826667-15.246222 15.246222-15.246222h58.140444c8.419556 0 15.246222 6.826667 15.246223 15.246222v58.140444c0 8.533333-6.826667 15.246222-15.246223 15.246222z" fill="#FFAE00" p-id="8287"></path><path d="M541.013333 698.936889h-58.140444c-8.419556 0-15.246222-6.826667-15.246222-15.246222v-58.140445c0-8.419556 6.826667-15.246222 15.246222-15.246222h58.140444c8.419556 0 15.246222 6.826667 15.246223 15.246222v58.140445c0 8.419556-6.826667 15.246222-15.246223 15.246222z" fill="#0051DF" p-id="8288"></path><path d="M742.741333 542.492444h-58.140444c-8.419556 0-15.246222-6.826667-15.246222-15.246222v-58.140444c0-8.419556 6.826667-15.246222 15.246222-15.246222h58.140444c8.419556 0 15.246222 6.826667 15.246223 15.246222v58.140444c0 8.533333-6.826667 15.246222-15.246223 15.246222z" fill="#05C900" p-id="8289"></path><path d="M742.741333 698.936889h-58.140444c-8.419556 0-15.246222-6.826667-15.246222-15.246222v-58.140445c0-8.419556 6.826667-15.246222 15.246222-15.246222h58.140444c8.419556 0 15.246222 6.826667 15.246223 15.246222v58.140445c0 8.419556-6.826667 15.246222-15.246223 15.246222z" fill="#662AFF" p-id="8290"></path></svg>