<?xml version="1.0" standalone="no"?><!DOCTYPE svg PUBLIC "-//W3C//DTD SVG 1.1//EN" "http://www.w3.org/Graphics/SVG/1.1/DTD/svg11.dtd"><svg t="1610773348817" class="icon" viewBox="0 0 1024 1024" version="1.1" xmlns="http://www.w3.org/2000/svg" p-id="18228" xmlns:xlink="http://www.w3.org/1999/xlink" width="128" height="128"><defs><style type="text/css"></style></defs><path d="M512 8C233.649 8 8 233.649 8 512c0 278.352 225.649 504 504 504 278.352 0 504-225.648 504-504C1016 233.649 790.352 8 512 8z m184.19 659.1c-0.215 28.438-23.408 51.358-51.859 51.194H379.6c-28.42 0.115-51.586-22.763-51.79-51.194v-39.458h52.929v-41.476H327.81V532.72h52.929v-41.466H327.81v-53.43h52.929v-41.466H327.81v-39.471c0.22-28.415 23.37-51.301 51.79-51.181h264.732c28.448-0.156 51.644 22.738 51.859 51.181V667.1z" fill="#07BFB4" p-id="18229"></path><path d="M621.929 547.142a135.028 135.028 0 0 0-30.565-17.181c-6.316-2.677-12.994-5.227-20.49-7.855a16.515 16.515 0 0 1-8.577-8.84 13.294 13.294 0 0 1-1.249-9.153l0.281-0.351a77.942 77.942 0 0 0 19.429-37.045 76.559 76.559 0 0 0-1.139-37.585 45.342 45.342 0 0 0-33.183-33.298 54.462 54.462 0 0 0-7.261-1.313v-0.297H529.17v0.297a53.744 53.744 0 0 0-7.266 1.313 45.447 45.447 0 0 0-33.19 33.298 78.426 78.426 0 0 0 18.23 74.63l0.356 0.425a13.398 13.398 0 0 1-1.254 9.15 17.232 17.232 0 0 1-8.576 8.935 282.867 282.867 0 0 0-20.432 7.829 133.956 133.956 0 0 0-30.552 17.205 35.42 35.42 0 0 0-14.417 18.364 38.287 38.287 0 0 0-1.019 10.32v1.671a19.518 19.518 0 0 0 7.274 15.761 85.585 85.585 0 0 0 9.572 6.294l1.137 0.655H619.15l1.139-0.655a90.828 90.828 0 0 0 9.595-6.294l0.103-0.118a19.938 19.938 0 0 0 7.371-15.894v-1.648a39.936 39.936 0 0 0-1.024-10.232 36.392 36.392 0 0 0-14.405-18.388z" fill="#07BFB4" p-id="18230"></path></svg>