<?xml version="1.0" standalone="no"?><!DOCTYPE svg PUBLIC "-//W3C//DTD SVG 1.1//EN" "http://www.w3.org/Graphics/SVG/1.1/DTD/svg11.dtd"><svg t="1610773296425" class="icon" viewBox="0 0 1024 1024" version="1.1" xmlns="http://www.w3.org/2000/svg" p-id="17299" xmlns:xlink="http://www.w3.org/1999/xlink" width="128" height="128"><defs><style type="text/css"></style></defs><path d="M735.232 63.936a95.904 95.904 0 0 1 95.904 95.904V671.36a63.936 63.936 0 0 1-63.936 63.936H223.68c-52.928 0-95.904 37.632-95.904 83.936 0 46.368 42.976 83.904 96 83.904h575.424a95.904 95.904 0 0 0 95.904-95.904V207.808a31.968 31.968 0 1 1 63.936 0v623.36a127.872 127.872 0 0 1-127.872 127.904H191.744c-70.336 0-127.872-50.4-127.872-111.904V175.808c0-61.536 57.536-111.872 127.872-111.872h543.488z m67.936 727.296a27.968 27.968 0 1 1 0 55.936H283.616a27.968 27.968 0 1 1 0-55.936H803.2zM370.048 369.44H281.792v37.024h50.88V512c-15.424 8.512-32.384 28.16-51.648 59.008l29.696 27.744c19.264-34.688 32.384-52.064 40.064-52.064 4.224 0 8.864 3.104 14.272 9.664 11.52 13.12 25.024 21.952 40.448 26.56 16.192 3.84 36.608 6.176 61.664 6.56 24.64 0.384 47.776 0.768 68.992 0.768h88.224l10.048-39.68c-10.816 0.768-25.856 1.536-45.504 2.304-20.032 0-39.328 0.384-58.56 0.384-30.08 0-55.872-0.384-78.24-0.768-22.72-0.768-39.68-3.84-51.232-9.6-8.896-5.024-17.76-12.736-26.592-22.72l-4.256-4.288V369.44z m166.496-130.624h-39.36v44.672h-36.192c3.104-9.6 6.56-19.648 9.6-30.4l-38.496-8.096a270.176 270.176 0 0 1-43.936 91.328l34.688 21.952c7.68-11.2 14.656-23.104 21.568-36.224h52.8v45.088h-98.624v38.528h57.024c-1.536 20.032-4.992 36.992-10.4 50.88-9.28 21.184-28.48 39.328-58.56 53.92l25.792 31.616c36.608-19.264 59.776-43.52 69.376-72.448a245.12 245.12 0 0 0 11.968-63.936h29.664v99.008c0 10.016 3.072 18.496 9.28 25.44 6.144 6.176 15.04 9.28 26.944 9.28h27.36c13.888 0 23.104-3.104 28.512-8.512 5.44-6.176 9.632-25.824 12.736-59.328l-35.072-11.968c-0.768 25.44-2.72 39.328-5.76 41.6a12.544 12.544 0 0 1-8.896 3.84h-6.528c-7.36 0-10.816-3.04-10.816-8.832v-90.56h61.28v-38.496h-85.92v-45.088h72.8V283.52h-72.8V238.816h-0.032z m-220.064 4.256l-27.36 25.792c26.976 22.4 47.808 43.52 62.432 62.816l28.16-27.744A534.272 534.272 0 0 0 316.48 243.072z" fill="#a4579d" p-id="17300"></path></svg>