<?xml version="1.0" standalone="no"?><!DOCTYPE svg PUBLIC "-//W3C//DTD SVG 1.1//EN" "http://www.w3.org/Graphics/SVG/1.1/DTD/svg11.dtd"><svg t="1610773114812" class="icon" viewBox="0 0 1215 1024" version="1.1" xmlns="http://www.w3.org/2000/svg" p-id="15489" xmlns:xlink="http://www.w3.org/1999/xlink" width="151.875" height="128"><defs><style type="text/css"></style></defs><path d="M386.239759 794.176144c-32.57598 12.159992-63.35996 27.263983-91.967943 44.991972a440.959724 440.959724 0 0 0 190.527881 97.023939c-21.311987-34.879978-39.871975-80.63995-54.527966-134.399916l-1.983999-7.615995 65.599959 0.128c27.711983 95.67994 64.57596 148.031907 86.463946 152.959904l3.327998 0.448c21.311987 0 60.607962-52.735967 89.791944-153.407904h65.599959c-14.911991 57.151964-34.239979 105.407934-56.575965 141.887911a440.575725 440.575725 0 0 0 190.719881-97.279939 531.199668 531.199668 0 0 0-91.775942-44.735972l216.959864 0.128a504.895684 504.895684 0 0 1-414.719741 216.575864 504.895684 504.895684 0 0 1-414.847741-216.575864l217.407865-0.128z m-163.839898-465.727709c64.57596 0 118.143926 22.079986 153.855904 63.55196l-54.655966 50.431968c-26.751983-28.351982-57.727964-41.471974-95.039941-41.471974-71.423955 0-120.255925 47.74397-120.255924 117.631927 0 68.735957 48.831969 117.631926 119.231925 117.631926a135.039916 135.039916 0 0 0 66.175959-15.80799V512.76832h77.695951v149.119906c-40.447975 30.463981-96.12794 46.719971-148.607907 46.719971-115.519928 0-200.575875-79.23195-200.575875-190.079881 0-110.719931 85.055947-190.079881 202.175874-190.079881z m384.895759 6.335996c98.175939 0 159.6159 50.943968 159.615901 133.375916 0 81.919949-61.439962 132.863917-159.615901 132.863917H533.247667v101.311937h-85.119947V334.784431z m401.21575 0l164.351897 367.55177H1083.519323l-32.57598-78.719951h-170.623893l-32.63998 78.719951h-87.103945l163.839897-367.55177h84.031948z m-42.559974 83.455948l-58.239963 140.799912h116.479927l-58.239964-140.799912z m-363.391773-14.143992H533.247667v127.615921h69.311956c51.967968 0 78.271951-23.679985 78.271951-63.551961 0-40.447975-26.239984-64.06396-78.271951-64.06396zM583.679635 0.00064a505.151684 505.151684 0 0 1 431.93573 242.815848h-76.799952a443.455723 443.455723 0 0 0-20.223987-25.279984 574.719641 574.719641 0 0 1-42.559974 25.279984h-195.455877C651.007593 125.056562 606.719621 63.168601 583.679635 63.168601c-22.207986 0-63.74396 56.831964-93.183942 165.247896l-3.711997 14.399991h-195.839878a570.943643 570.943643 0 0 1-21.119987-11.839992L248.511845 217.600504c-7.039996 8.191995-13.695991 16.63999-20.095988 25.215984H151.743905A505.151684 505.151684 0 0 1 583.679635 0.00064z m98.815938 74.687953c23.999985 39.231975 44.543972 92.159942 59.903963 155.007903a535.679665 535.679665 0 0 0 130.751918-57.855963 441.599724 441.599724 0 0 0-190.719881-97.15194z m-197.695876 0.128a440.959724 440.959724 0 0 0-190.527881 97.02394c39.807975 24.447985 83.711948 44.095972 130.623918 57.855963 15.48799-62.847961 35.903978-115.775928 59.903963-154.879903z" p-id="15490" fill="#1296db"></path></svg>