<?xml version="1.0" standalone="no"?><!DOCTYPE svg PUBLIC "-//W3C//DTD SVG 1.1//EN" "http://www.w3.org/Graphics/SVG/1.1/DTD/svg11.dtd"><svg t="1610773416102" class="icon" viewBox="0 0 1024 1024" version="1.1" xmlns="http://www.w3.org/2000/svg" p-id="18980" xmlns:xlink="http://www.w3.org/1999/xlink" width="128" height="128"><defs><style type="text/css"></style></defs><path d="M512 0C229.268 0 0 229.268 0 512s229.268 512 512 512 512-229.268 512-512S794.732 0 512 0zM184.233 324.154c-3.05-20.069 0.562-39.094 14.21-54.106 0.16-0.16 0.16-0.401 0.4-0.642 15.975-20.069 37.89-25.929 61.572-22.477 55.47 8.108 101.469 33.876 133.74 80.195 19.427 28.097 24.083 59.324 9.312 91.756-2.248 4.656-0.562 7.305 2.649 10.355 24.564 23.12 48.808 46.16 73.131 69.279 7.546 7.064 7.707 6.903 0.402 13.968-9.954 9.472-20.47 18.784-30.023 28.738l-1.044 1.044c-0.16 0-0.16 0.16-0.401 0.16-0.16 0.161-0.402 0.402-0.643 0.402-0.16 0.16-0.16 0.16-0.401 0.16-0.16 0.161-0.401 0.161-0.401 0.402-0.16 0-0.16 0.16-0.402 0.16-0.16 0-0.16 0.161-0.401 0.161-0.16 0-0.16 0.16-0.401 0.16-0.161 0-0.161 0.161-0.402 0.161-0.16 0-0.16 0.16-0.401 0.16h-0.402c-0.16 0-0.16 0-0.401 0.161h-1.044c-0.562 0-1.204-0.16-1.766-0.401-0.16 0-0.401-0.16-0.642-0.16h-0.16c-0.161 0-0.402-0.161-0.562-0.402h-0.402c-0.16-0.16-0.401-0.16-0.642-0.401l-0.16-0.161c-0.161-0.16-0.402-0.401-0.643-0.401-0.401-0.161-0.562-0.562-1.043-0.803l-1.044-1.044c-0.401-0.401-0.803-0.803-1.204-1.445-22.477-23.52-44.955-46.8-67.271-70.321-3.05-3.211-5.62-4.656-10.356-2.65-32.27 14.932-63.418 10.757-91.755-8.75-46.801-31.95-72.73-77.948-80.999-133.258z m552.78 437.183c-4.415 10.918-11.72 20.872-20.871 28.418-7.546 6.261-18.223 13.968-28.579 10.757h-0.16c-6.262-2.087-11.4-6.663-16.216-11.4-19.828-20.068-38.693-41.342-58.12-61.972-21.273-22.317-42.305-44.794-63.578-67.03-7.546-7.868-14.77-15.574-22.317-23.522-7.305-7.706-7.305-7.546 0-14.931 10.757-11.078 21.675-22.076 31.79-33.636 5.298-6.1 8.91-5.298 14.208-0.16 22.478 21.674 45.115 42.947 67.673 64.381 30.344 28.739 60.528 57.718 91.193 86.297 7.386 6.582 8.43 14.048 4.977 22.798z m102.111-423.616c-7.305 16.858-18.784 30.746-31.227 44.152-20.47 22.076-40.298 44.794-64.06 63.418-27.133 21.273-57.718 29.38-91.354 16.456-4.415-1.605-6.904 0.16-9.473 3.05-43.188 45.597-86.537 91.194-129.886 136.71-35.482 37.249-70.723 74.577-106.125 111.825-25.528 26.973-51.055 53.705-76.342 80.597-3.211 3.452-6.904 5.62-11.078 7.305h-1.445c-22.317-4.656-37.248-18.463-46.64-38.693-5.299-11.56-4.255-16.216 4.896-24.885C377.86 641.164 479.57 544.993 581.037 448.582c7.546-7.064 14.932-14.37 22.478-21.675 2.649-2.649 4.254-5.057 2.408-9.151-17.18-37.087-8.51-71.124 16.456-100.345 24.725-28.739 52.26-55.31 81.802-79.393 6.261-5.298 13.165-10.115 20.871-13.165 8.51-3.452 15.413-2.65 23.28 1.445 10.918 5.62 10.918 6.1 2.65 14.77l-63.82 66.309c-6.663 6.903-13.326 13.807-19.667 21.032-5.058 5.94-4.656 11.078 0.642 15.975 5.458 4.897 10.114 4.254 18.222-2.65l86.859-74.174c14.77-12.604 10.356-11.4 24.083 1.204 4.656 4.255 5.057 7.305 0.642 12.362-26.732 30.987-53.303 62.455-79.794 93.602-6.262 7.546-6.663 13.005-1.445 18.223 5.298 5.057 10.917 4.415 18.062-2.409 26.33-25.126 52.66-50.413 78.991-75.78 15.815-15.252 15.815-15.413 25.127 4.897 2.89 7.305 2.087 12.603 0.24 18.062z" fill="#e98f36" p-id="18981"></path></svg>