<?xml version="1.0" standalone="no"?><!DOCTYPE svg PUBLIC "-//W3C//DTD SVG 1.1//EN" "http://www.w3.org/Graphics/SVG/1.1/DTD/svg11.dtd"><svg t="1610772961326" class="icon" viewBox="0 0 1024 1024" version="1.1" xmlns="http://www.w3.org/2000/svg" p-id="9841" xmlns:xlink="http://www.w3.org/1999/xlink" width="128" height="128"><defs><style type="text/css"></style></defs><path d="M313.716364 181.415564l-39.842909 74.472727h74.472727l-34.629818-74.472727zM768.539927 7.074909H133.976436C75.403636 7.074909 27.927273 54.923636 27.927273 113.961891v791.514764c0 59.038255 47.476364 106.886982 106.049163 106.886981h484.389237c-100.929164-32.209455-169.5744-126.547782-169.704728-233.2672-0.055855-31.706764 6.069527-63.115636 18.0224-92.457891 0 0 59.1872-162.2016 224.609746-151.887127 64.3072 4.002909 125.151418 25.432436 171.045236 71.624146 2.736873 2.718255 12.232145 14.596655 12.232146 14.596654V113.887418c0-59.019636-47.476364-106.868364-106.030546-106.9056V7.074909zM164.473018 325.147927l26.344727-49.152c1.321891-4.151855 3.407127-8.043055 6.125382-11.431563l85.662255-159.818473a34.573964 34.573964 0 0 1 31.390254-18.376146c13.032727 0.372364 24.743564 8.117527 30.347637 20.089019l103.517091 220.383418c8.247855 17.594182 0.930909 38.688582-16.365382 47.104a34.443636 34.443636 0 0 1-46.247564-16.644655l-16.458473-35.076654h-123.717818l-19.716654 36.770909a34.369164 34.369164 0 0 1-47.066764 14.075345 35.653818 35.653818 0 0 1-13.814691-47.9232z m148.926837 502.020655h-174.08c-17.687273 0-32.023273-16.663273-32.023273-37.236364 0-20.554473 14.336-37.236364 32.023273-37.236363h174.08c17.687273 0 32.023273 16.681891 32.023272 37.236363 0 20.573091-14.336 37.236364-32.023272 37.236364z m24.333963-132.282182H141.442327c-18.860218 0-34.145745-16.681891-34.145745-37.236364 0-20.573091 15.285527-37.236364 34.145745-37.236363H337.733818c18.860218 0 34.145745 16.663273 34.145746 37.236363 0 20.554473-15.285527 37.236364-34.145746 37.236364z m159.837091-158.738618H140.343855c-18.245818 0-33.047273-16.681891-33.047273-37.236364 0-20.573091 14.801455-37.236364 33.047273-37.236363h357.227054c18.245818 0 33.047273 16.663273 33.047273 37.236363 0 20.554473-14.801455 37.236364-33.047273 37.236364z m41.872291-379.233746h-17.650036v17.631419a17.631418 17.631418 0 0 1-35.262837 0v-17.631419h-17.650036a17.631418 17.631418 0 0 1 0-35.281454h17.650036v-17.631418a17.631418 17.631418 0 0 1 35.262837 0v17.631418h17.650036a17.631418 17.631418 0 0 1 0 35.281454z" fill="#1296db" p-id="9842"></path><path d="M967.009745 950.569891l-25.711709-19.809746-81.957236-63.339054c3.835345-6.423273 7.168-13.144436 9.960727-20.051782a155.964509 155.964509 0 0 0 10.109673-32.432873c0.726109-3.258182 1.2288-6.330182 1.712873-9.253236a13.125818 13.125818 0 0 0 0.111709-2.103855c0.260655-0.726109 0.260655-1.694255 0.502691-2.290036 0.242036-1.191564 0.242036-2.401745 0.502691-3.4816 0.186182-1.489455 0.260655-2.978909 0.223418-4.468364a3.537455 3.537455 0 0 0 0.260654-1.545309v-2.774109c0.242036-2.978909 0.484073-5.995055 0.484073-8.992582-0.6144-97.745455-81.696582-176.835491-181.843782-177.338181-100.165818 0-181.881018 79.760291-181.881018 177.338181 0.186182 97.987491 81.491782 177.3568 181.8624 177.5616a182.458182 182.458182 0 0 0 111.467055-37.832145l58.5728 45.149091 51.684072 39.880145a35.691055 35.691055 0 0 0 49.729164-5.510981 34.182982 34.182982 0 0 0-5.790255-48.705164zM780.027345 844.334545l-10.761309 12.139055a99.421091 99.421091 0 0 1-69.2224 27.927273 102.437236 102.437236 0 1 1 79.983709-40.066328z" fill="#1296db" p-id="9843"></path></svg>