<?xml version="1.0" standalone="no"?><!DOCTYPE svg PUBLIC "-//W3C//DTD SVG 1.1//EN" "http://www.w3.org/Graphics/SVG/1.1/DTD/svg11.dtd"><svg t="1610795764988" class="icon" viewBox="0 0 1024 1024" version="1.1" xmlns="http://www.w3.org/2000/svg" p-id="24915" xmlns:xlink="http://www.w3.org/1999/xlink" width="128" height="128"><defs><style type="text/css"></style></defs><path d="M881.11874 948.443982a14.750203 14.750203 0 0 1-10.448111-4.31912 14.77088 14.77088 0 0 1-4.344662-10.443246V904.120396a14.766015 14.766015 0 0 1 14.779394-14.762366h0.014595c8.143202 0 14.759933 6.604568 14.759933 14.742905v29.567302a14.741688 14.741688 0 0 1-4.316687 10.448111 14.769663 14.769663 0 0 1-10.444462 4.327634" fill="#FD574A" p-id="24916"></path><path d="M733.340612 283.468558L541.349582 76.591099H83.250401v857.075922h650.102374V283.468558h-0.012163z m0 0" fill="#FFEAA7" p-id="24917"></path><path d="M363.90928 431.230873c0 57.138638-46.319552 103.45819-103.453325 103.458191-57.137422 0-103.456974-46.319552-103.456974-103.458191 0-57.132557 46.319552-103.452109 103.456974-103.452109 57.133773 0 103.453325 46.319552 103.453325 103.452109m0 310.33565a103.419269 103.419269 0 0 1-30.293439 73.14529 103.420485 103.420485 0 0 1-73.14529 30.293439c-57.128908 0-103.43873-46.309822-103.43873-103.438729s46.309822-103.43873 103.43873-103.43873c57.128908 0 103.43873 46.309822 103.438729 103.43873" fill="#FFFFFF" p-id="24918"></path><path d="M541.349582 76.591099v206.877459h191.992247L541.349582 76.591099z m118.100142 398.997417H437.780708c-7.976567-0.261507-14.309898-6.804043-14.309898-14.78061 0-7.982649 6.333331-14.525185 14.309898-14.786692h221.670232c7.975351 0.261507 14.308682 6.804043 14.308682 14.786692-0.001216 7.976567-6.334547 14.519103-14.309898 14.78061m-29.547841-59.113927H437.780708c-7.976567-0.261507-14.309898-6.804043-14.309898-14.786692 0-7.976567 6.333331-14.52032 14.309898-14.78061h192.122391c7.975351 0.261507 14.308682 6.804043 14.308682 14.78061-0.001216 7.982649-6.334547 14.525185-14.309898 14.786692" fill="#FCCE5C" p-id="24919"></path><path d="M260.470551 475.588516a14.739256 14.739256 0 0 1-10.433515-4.32885L220.474599 441.69358c-5.401637-5.829778-5.230137-14.880348 0.38557-20.505786 5.620573-5.621789 14.671142-5.796938 20.505786-0.405031l17.51731 17.50393 34.000755-45.445025a14.792773 14.792773 0 0 1 25.812551 2.774405 14.808585 14.808585 0 0 1-2.146789 14.94238l-44.215335 59.115143a14.800071 14.800071 0 0 1-10.789894 5.900325l-1.074002 0.014595" fill="#FD574A" p-id="24920"></path><path d="M659.449724 785.919301H437.780708c-8.166312 0-14.790341-6.617948-14.790341-14.789125 0-8.168744 6.624029-14.791557 14.790341-14.791557h221.670232c8.16996 0 14.790341 6.622813 14.790341 14.791557 0 8.16996-6.621597 14.789124-14.791557 14.789125m-29.547841-59.128523H437.780708c-8.157797 0-14.77088-6.614299-14.77088-14.775745 0-8.157797 6.613082-14.772096 14.77088-14.772096h192.122391c8.152932 0 14.764798 6.604568 14.773312 14.7575v0.014596c-0.00973 8.156581-6.616731 14.766015-14.774528 14.775745" fill="#FCCE5C" p-id="24921"></path><path d="M260.470551 785.919301a14.7575 14.7575 0 0 1-10.433515-4.34223L220.474599 752.009768a14.727093 14.727093 0 0 1-4.3325-10.433515 14.756284 14.756284 0 0 1 4.314255-10.443245h0.018245a14.728309 14.728309 0 0 1 10.433515-4.337365 14.736823 14.736823 0 0 1 10.443245 4.323985v0.014596l17.513661 17.48447 34.004405-45.459621c4.969846-6.300491 14.058122-7.482745 20.47781-2.673451 6.418473 4.812942 7.834259 13.867161 3.187951 20.404832l-44.220199 59.115143a14.838993 14.838993 0 0 1-10.785029 5.886945l-1.059407 0.026759" fill="#FD574A" p-id="24922"></path><path d="M940.215639 800.662205l-59.098115 103.458191-59.130956-103.458191V105.920004c0-16.186666 13.158052-29.328905 29.348366-29.328905h59.551799c16.193964 0 29.328905 13.142239 29.328906 29.328905v694.742201z m0 0" fill="#FCCE5C" p-id="24923"></path><path d="M821.986568 180.029828h118.229071v59.085952h-118.229071z" fill="#FD574A" p-id="24924"></path></svg>