<?xml version="1.0" standalone="no"?><!DOCTYPE svg PUBLIC "-//W3C//DTD SVG 1.1//EN" "http://www.w3.org/Graphics/SVG/1.1/DTD/svg11.dtd"><svg t="1610774347581" class="icon" viewBox="0 0 1024 1024" version="1.1" xmlns="http://www.w3.org/2000/svg" p-id="23024" xmlns:xlink="http://www.w3.org/1999/xlink" width="128" height="128"><defs><style type="text/css"></style></defs><path d="M947.2 404.48c5.12 15.36 0 30.72-10.24 40.96l-184.32 184.32 40.96 261.12c5.12 15.36-5.12 30.72-15.36 40.96-5.12 5.12-15.36 10.24-25.6 10.24-5.12 0-15.36 0-20.48-5.12L512 819.2l-225.28 122.88c-15.36 5.12-30.72 5.12-40.96-5.12-10.24-10.24-20.48-25.6-15.36-40.96l40.96-261.12-184.32-184.32c-10.24-10.24-15.36-30.72-10.24-46.08 5.12-15.36 15.36-25.6 30.72-30.72L358.4 337.92 476.16 102.4c5.12-15.36 20.48-25.6 35.84-25.6 15.36 0 30.72 10.24 35.84 25.6l112.64 240.64 250.88 35.84c15.36 0 30.72 10.24 35.84 25.6z m-271.36 0l-194.56 204.8-81.92-87.04c-15.36-15.36-35.84-15.36-51.2 0s-15.36 40.96 0 51.2l107.52 117.76c15.36 15.36 35.84 15.36 51.2 0L727.04 460.8c15.36-15.36 15.36-40.96 0-51.2-10.24-20.48-35.84-20.48-51.2-5.12z" fill="#FF7F70" p-id="23025"></path></svg>